<svg xmlns="http://www.w3.org/2000/svg" xmlns:xlink="http://www.w3.org/1999/xlink"><symbol id="icon-arrow"><path stroke="#000" stroke-width="2" d="M0 6h26"/><path d="m32 6-6.8 5.2V.8L32 6Z" fill="#000"/></symbol><symbol id="icon-basic"><path fill="#fff" d="M10.9 0c-1.7 0-3 1.4-3 3.1 0 1.7 1.3 3.1 3 3.1 1.6 0 2.9-1.4 2.9-3.1 0-1.7-1.3-3.1-3-3.1Zm0 1.2c1 0 1.7.8 1.7 1.9 0 1-.8 2-1.7 2C9.9 5 9 4 9 3s.8-2 1.8-2ZM0 24.9c0 1.2.4 2.2 1.4 3 1 .9 2.1.8 2.1.8h19c.8 0 1.8-.4 2.7-1.5.8-1 .7-2.3.7-2.3V7.5c0-.4 0-.6-.7-.6-.6 0-.7.3-.7.6v17.3c0 .3 0 1.1-.7 1.8-.8.6-1.5.5-1.5.5h-19c-.3 0-.9-.2-1.4-1-.5-.6-.4-1.6-.4-1.6V7.2c0-.4-.3-.6-.8-.6-.4 0-.7.2-.7.6v17.7ZM16.3 8.5c-1 .2-2.2.4-4.3 2.3-2 2-3.6 2-5.1 1.9-1.6-.1-3.2-1.6-3.5-2-.3-.3-.9 0-1 .2-.2.2-.2.6 0 1a7 7 0 0 0 4.8 2.3c2.2.2 4.4-.9 5.9-2.3 1.4-1.5 2.1-1.8 3.2-2 2.6-.4 4.2.7 5 1.3 1 1.1 1.3.8 1.6.5.6-.7-.2-1.3-1-1.9a7.2 7.2 0 0 0-5.6-1.3Zm-9 7.2c-1.2 0-2.1 1-2.1 2.3 0 1.2.9 2.2 2 2.2 1.2 0 2.1-1 2.1-2.2 0-1.3-.9-2.3-2-2.3Zm11.7.8c-1.5 0-2.8 1.3-2.8 3 0 1.6 1.3 3 2.8 3 1.5 0 2.8-1.4 2.8-3 0-1.7-1.3-3-2.8-3Zm0 1.4c.8 0 1.5.7 1.5 1.6 0 .8-.7 1.5-1.5 1.5s-1.4-.7-1.4-1.5c0-.9.6-1.6 1.4-1.6Z"/></symbol><symbol id="icon-box"><path fill="#fff" d="M65.7 36H14.4a3.3 3.3 0 0 1-3.3-3.3V23c0-1.8 1.5-3.3 3.3-3.3h51.3c1.8 0 3.2 1.5 3.2 3.3v9.8c0 1.8-1.4 3.3-3.2 3.3ZM14.4 22.1c-.4 0-.8.4-.8.8v9.8c0 .5.4.8.8.8h51.3c.4 0 .7-.3.7-.8V23c0-.4-.3-.8-.7-.8H14.4Z"/><path fill="#fff" d="M58.5 69.7h-37a6.3 6.3 0 0 1-6.2-6.3V34.8c0-.7.5-1.3 1.2-1.3s1.3.6 1.3 1.3v28.6c0 2 1.7 3.8 3.7 3.8h37c2 0 3.8-1.8 3.8-3.8V34.8c0-.7.5-1.3 1.2-1.3s1.3.6 1.3 1.3v28.6c0 3.4-2.8 6.3-6.3 6.3Z"/><path fill="#fff" d="M40 69.7c-.7 0-1.2-.6-1.2-1.3V34.8c0-.7.5-1.3 1.2-1.3s1.3.6 1.3 1.3v33.6c0 .7-.6 1.3-1.3 1.3ZM24.4 22.1c-3.9-2-5.4-7-3.2-11a8 8 0 0 1 11-3.2c5.9 3.2 9 12.3 9.2 12.7l-2.3.8s-3-8.5-8.2-11.3c-2.7-1.5-6-.5-7.5 2.2a5.6 5.6 0 0 0 2.2 7.6l-1.2 2.2Z"/><path fill="#fff" d="M55.6 22.1 54.4 20a5.6 5.6 0 0 0 2.3-7.6 5.5 5.5 0 0 0-7.6-2.2c-5 2.8-8 11.2-8.1 11.3l-2.4-.8c.2-.4 3.4-9.5 9.3-12.7a8 8 0 0 1 11 3.3 8 8 0 0 1-3.3 11Zm7.9 30.7h-47a1.3 1.3 0 0 1 0-2.5h47a1.3 1.3 0 0 1 0 2.5Z"/></symbol><symbol id="icon-clock"><path fill="#fff" d="M5.54 0c-1.06 0-1.06 1.58 0 1.58h6.64v1.6C5.38 3.63 0 9.42 0 16.49c0 4.02 1.74 7.64 4.5 10.07.47.43.54 1.18.1 1.64l-1.53 1.55c-.74.69.36 1.75 1.03 1l2-2.03c.35-.34.87-.43 1.3-.21a12.7 12.7 0 0 0 11.07.06c.43-.21.96-.13 1.3.21l1.94 1.97c.68.64 1.65-.31 1.04-1l-1.45-1.48c-.44-.45-.38-1.2.1-1.63A13.46 13.46 0 0 0 26 16.47C26 9.4 20.59 3.6 13.78 3.2V1.6h6.64c1.06 0 1.06-1.59 0-1.59H5.54Zm-4.1 16.47A11.7 11.7 0 0 1 13 4.65c6.38 0 11.55 5.3 11.55 11.82 0 6.55-5.17 11.85-11.55 11.85-6.38 0-11.57-5.3-11.57-11.85Zm10.75-8.09c0-1.1 1.66-1.1 1.66 0v8.63a.84.84 0 0 1-.85.85.81.81 0 0 1-.8-.8V8.39ZM7.22 11a1.16 1.16 0 0 0 1.16-1.15A1.15 1.15 0 0 0 7.22 8.7a1.16 1.16 0 0 0-1.05 1.14A1.15 1.15 0 0 0 7.22 11Zm11.55 0a1.16 1.16 0 0 0 1.16-1.15 1.15 1.15 0 0 0-1.16-1.15 1.16 1.16 0 0 0-1.05 1.14A1.15 1.15 0 0 0 18.77 11ZM8.37 23.59c0 1.53-2.31 1.53-2.31 0s2.32-1.53 2.32 0ZM13 27.03a1.17 1.17 0 0 0 1.17-.68 1.14 1.14 0 0 0-.7-1.56 1.17 1.17 0 0 0-1.22.32 1.15 1.15 0 0 0 .75 1.92ZM4.91 16.64a1.14 1.14 0 0 1-.68 1.17 1.17 1.17 0 0 1-1.57-.7 1.14 1.14 0 0 1 .32-1.2 1.16 1.16 0 0 1 1.93.73Zm17.33 1.15a1.16 1.16 0 0 0 1.17-.68 1.14 1.14 0 0 0-.7-1.55 1.17 1.17 0 0 0-1.22.32 1.15 1.15 0 0 0 .75 1.91Zm-2.31 5.8c0 1.53-2.32 1.53-2.32 0s2.32-1.53 2.32 0Z"/></symbol><symbol id="icon-eat"><path fill-rule="evenodd" clip-rule="evenodd" d="M18.617.076a1 1 0 0 1 1.09.217c.909.908 2.097 2.878 3.059 5.918C23.737 9.28 24.5 13.508 24.5 19a1 1 0 0 1-1 1H20v9a1 1 0 1 1-2 0V1a1 1 0 0 1 .617-.924ZM20 18h2.491c-.086-4.816-.786-8.512-1.632-11.186-.278-.88-.57-1.643-.859-2.295V18ZM6 0a1 1 0 0 1 1 1v28a1 1 0 1 1-2 0V1a1 1 0 0 1 1-1Z" fill="#fff"/><path fill-rule="evenodd" clip-rule="evenodd" d="M1.5 0a1 1 0 0 1 1 1v5.5c0 .557.192 1.315.7 1.917C3.68 8.983 4.515 9.5 6 9.5a1 1 0 1 1 0 2c-2.015 0-3.43-.733-4.326-1.792A5.068 5.068 0 0 1 .5 6.5V1a1 1 0 0 1 1-1Z" fill="#fff"/><path fill-rule="evenodd" clip-rule="evenodd" d="M10.5 0a1 1 0 0 0-1 1v5.5a3.07 3.07 0 0 1-.7 1.917C8.32 8.983 7.484 9.5 6 9.5a1 1 0 0 0 0 2c2.014 0 3.43-.733 4.326-1.792A5.068 5.068 0 0 0 11.5 6.5V1a1 1 0 0 0-1-1Z" fill="#fff"/></symbol><symbol id="icon-email"><path stroke="#000" stroke-linecap="round" stroke-linejoin="round" d="M1.5 8.5v8h17v-8m-17-5h17v2l-8.5 6-8.5-6v-2Z"/></symbol><symbol id="icon-leaf"><path d="M24.775.767c-.1-.45-.479-.767-.91-.767h-.006C18.92.033 6.912.916 2.064 8.38c-2.518 3.878-2.734 8.913-.644 14.965.016.047.05.079.07.122C.745 25.44.456 26.753.448 26.79c-.108.54.215 1.072.721 1.188a.88.88 0 0 0 .197.022c.432 0 .821-.321.916-.79.02-.102 2.408-10.373 10.853-16.378.432-.306.548-.927.26-1.387-.288-.46-.869-.585-1.3-.277-4.789 3.405-7.738 8.008-9.473 11.656-1.24-4.578-.916-8.377.987-11.305C7.35 3.755 16.23 2.365 21.59 2.071 20.437 3.872 19.177 7.174 19.177 13c0 3.12-.83 5.522-2.465 7.14-2.621 2.591-6.88 2.834-9.994 2.584-.517-.045-.966.371-1.006.922-.04.55.348 1.03.864 1.072.623.051 1.289.082 1.98.082 3.171 0 6.87-.663 9.43-3.194 2.034-2.011 3.066-4.906 3.066-8.605 0-9.099 3.215-11.096 3.231-11.105.39-.209.595-.677.492-1.129Z" fill="#fff"/></symbol><symbol id="icon-phone"><path stroke="#000" stroke-linecap="round" stroke-linejoin="round" d="M10 10h8.5m0 0L16 7.5m2.5 2.5L16 12.5m-7.5-10v5h-3v5h3v5H6c-1.5 0-2.5-1-2.5-2.5V5c0-1.5 1-2.5 2.5-2.5h2.5Z"/></symbol><symbol id="icon-tick"><path fill="#68B738" d="m11 17.72-5.7-6.45-1.05 1.19L11 20.09 22.25 7.37 21.2 6.09 11 17.72Z"/></symbol></svg>