<svg xmlns="http://www.w3.org/2000/svg" xmlns:xlink="http://www.w3.org/1999/xlink"><symbol id="icon-basic"><path fill="#fff" d="M10.9 0c-1.7 0-3 1.4-3 3.1 0 1.7 1.3 3.1 3 3.1 1.6 0 2.9-1.4 2.9-3.1 0-1.7-1.3-3.1-3-3.1Zm0 1.2c1 0 1.7.8 1.7 1.9 0 1-.8 2-1.7 2C9.9 5 9 4 9 3s.8-2 1.8-2ZM0 24.9c0 1.2.4 2.2 1.4 3 1 .9 2.1.8 2.1.8h19c.8 0 1.8-.4 2.7-1.5.8-1 .7-2.3.7-2.3V7.5c0-.4 0-.6-.7-.6-.6 0-.7.3-.7.6v17.3c0 .3 0 1.1-.7 1.8-.8.6-1.5.5-1.5.5h-19c-.3 0-.9-.2-1.4-1-.5-.6-.4-1.6-.4-1.6V7.2c0-.4-.3-.6-.8-.6-.4 0-.7.2-.7.6v17.7ZM16.3 8.5c-1 .2-2.2.4-4.3 2.3-2 2-3.6 2-5.1 1.9-1.6-.1-3.2-1.6-3.5-2-.3-.3-.9 0-1 .2-.2.2-.2.6 0 1a7 7 0 0 0 4.8 2.3c2.2.2 4.4-.9 5.9-2.3 1.4-1.5 2.1-1.8 3.2-2 2.6-.4 4.2.7 5 1.3 1 1.1 1.3.8 1.6.5.6-.7-.2-1.3-1-1.9a7.2 7.2 0 0 0-5.6-1.3Zm-9 7.2c-1.2 0-2.1 1-2.1 2.3 0 1.2.9 2.2 2 2.2 1.2 0 2.1-1 2.1-2.2 0-1.3-.9-2.3-2-2.3Zm11.7.8c-1.5 0-2.8 1.3-2.8 3 0 1.6 1.3 3 2.8 3 1.5 0 2.8-1.4 2.8-3 0-1.7-1.3-3-2.8-3Zm0 1.4c.8 0 1.5.7 1.5 1.6 0 .8-.7 1.5-1.5 1.5s-1.4-.7-1.4-1.5c0-.9.6-1.6 1.4-1.6Z"/></symbol><symbol id="icon-box"><path fill="#fff" d="M65.7 36H14.4a3.3 3.3 0 0 1-3.3-3.3V23c0-1.8 1.5-3.3 3.3-3.3h51.3c1.8 0 3.2 1.5 3.2 3.3v9.8c0 1.8-1.4 3.3-3.2 3.3ZM14.4 22.1c-.4 0-.8.4-.8.8v9.8c0 .5.4.8.8.8h51.3c.4 0 .7-.3.7-.8V23c0-.4-.3-.8-.7-.8H14.4Z"/><path fill="#fff" d="M58.5 69.7h-37a6.3 6.3 0 0 1-6.2-6.3V34.8c0-.7.5-1.3 1.2-1.3s1.3.6 1.3 1.3v28.6c0 2 1.7 3.8 3.7 3.8h37c2 0 3.8-1.8 3.8-3.8V34.8c0-.7.5-1.3 1.2-1.3s1.3.6 1.3 1.3v28.6c0 3.4-2.8 6.3-6.3 6.3Z"/><path fill="#fff" d="M40 69.7c-.7 0-1.2-.6-1.2-1.3V34.8c0-.7.5-1.3 1.2-1.3s1.3.6 1.3 1.3v33.6c0 .7-.6 1.3-1.3 1.3ZM24.4 22.1c-3.9-2-5.4-7-3.2-11a8 8 0 0 1 11-3.2c5.9 3.2 9 12.3 9.2 12.7l-2.3.8s-3-8.5-8.2-11.3c-2.7-1.5-6-.5-7.5 2.2a5.6 5.6 0 0 0 2.2 7.6l-1.2 2.2Z"/><path fill="#fff" d="M55.6 22.1 54.4 20a5.6 5.6 0 0 0 2.3-7.6 5.5 5.5 0 0 0-7.6-2.2c-5 2.8-8 11.2-8.1 11.3l-2.4-.8c.2-.4 3.4-9.5 9.3-12.7a8 8 0 0 1 11 3.3 8 8 0 0 1-3.3 11Zm7.9 30.7h-47a1.3 1.3 0 0 1 0-2.5h47a1.3 1.3 0 0 1 0 2.5Z"/></symbol><symbol id="icon-email"><path stroke="#000" stroke-linecap="round" stroke-linejoin="round" d="M1.5 8.5v8h17v-8m-17-5h17v2l-8.5 6-8.5-6v-2Z"/></symbol><symbol id="icon-phone"><path stroke="#000" stroke-linecap="round" stroke-linejoin="round" d="M10 10h8.5m0 0L16 7.5m2.5 2.5L16 12.5m-7.5-10v5h-3v5h3v5H6c-1.5 0-2.5-1-2.5-2.5V5c0-1.5 1-2.5 2.5-2.5h2.5Z"/></symbol></svg>