<svg xmlns="http://www.w3.org/2000/svg" xmlns:xlink="http://www.w3.org/1999/xlink"><symbol id="icon-basic"><path fill="#fff" d="M10.9 0c-1.7 0-3 1.4-3 3.1 0 1.7 1.3 3.1 3 3.1 1.6 0 2.9-1.4 2.9-3.1 0-1.7-1.3-3.1-3-3.1Zm0 1.2c1 0 1.7.8 1.7 1.9 0 1-.8 2-1.7 2C9.9 5 9 4 9 3s.8-2 1.8-2ZM0 24.9c0 1.2.4 2.2 1.4 3 1 .9 2.1.8 2.1.8h19c.8 0 1.8-.4 2.7-1.5.8-1 .7-2.3.7-2.3V7.5c0-.4 0-.6-.7-.6-.6 0-.7.3-.7.6v17.3c0 .3 0 1.1-.7 1.8-.8.6-1.5.5-1.5.5h-19c-.3 0-.9-.2-1.4-1-.5-.6-.4-1.6-.4-1.6V7.2c0-.4-.3-.6-.8-.6-.4 0-.7.2-.7.6v17.7ZM16.3 8.5c-1 .2-2.2.4-4.3 2.3-2 2-3.6 2-5.1 1.9-1.6-.1-3.2-1.6-3.5-2-.3-.3-.9 0-1 .2-.2.2-.2.6 0 1a7 7 0 0 0 4.8 2.3c2.2.2 4.4-.9 5.9-2.3 1.4-1.5 2.1-1.8 3.2-2 2.6-.4 4.2.7 5 1.3 1 1.1 1.3.8 1.6.5.6-.7-.2-1.3-1-1.9a7.2 7.2 0 0 0-5.6-1.3Zm-9 7.2c-1.2 0-2.1 1-2.1 2.3 0 1.2.9 2.2 2 2.2 1.2 0 2.1-1 2.1-2.2 0-1.3-.9-2.3-2-2.3Zm11.7.8c-1.5 0-2.8 1.3-2.8 3 0 1.6 1.3 3 2.8 3 1.5 0 2.8-1.4 2.8-3 0-1.7-1.3-3-2.8-3Zm0 1.4c.8 0 1.5.7 1.5 1.6 0 .8-.7 1.5-1.5 1.5s-1.4-.7-1.4-1.5c0-.9.6-1.6 1.4-1.6Z"/></symbol><symbol id="icon-email"><path stroke="#000" stroke-linecap="round" stroke-linejoin="round" d="M1.5 8.5v8h17v-8m-17-5h17v2l-8.5 6-8.5-6v-2Z"/></symbol><symbol id="icon-phone"><path stroke="#000" stroke-linecap="round" stroke-linejoin="round" d="M10 10h8.5m0 0L16 7.5m2.5 2.5L16 12.5m-7.5-10v5h-3v5h3v5H6c-1.5 0-2.5-1-2.5-2.5V5c0-1.5 1-2.5 2.5-2.5h2.5Z"/></symbol></svg>