<svg width="60" height="50" fill="none" xmlns="http://www.w3.org/2000/svg"><path d="M51.2 19A22.3 22.3 0 0 0 34 5.6 21.5 21.5 0 0 0 13.7 14a22.6 22.6 0 0 0 14.1 35.9l-1.4-6c1.3.8 2.6 1.6 4 2.2l.3 4c1.5 0 3-.1 4.5-.4V49c.3-1.6 1-4.5 1-6.4 1-1 2-2 2.6-3.3v.4c-.5 3.7-1.5 7.7-2.1 8.8l-.7 1a21.7 21.7 0 0 0 14.5-11.6 22.7 22.7 0 0 0 .7-18.7ZM50 22.5c-.4.3-1.2.6-1.3-.5l-.2-2s-1.6-3-2.3-3c-.6 0-5 3-6.1 4.4-1 1-1.2 1-1.2 3 0 1.5.2 7.1 0 11.4l-6.9 2c-2.2.6-4.4 1-6.7 1.4l-.8-5h-.1l-2.2-11.6-4.5-1.6a3.2 3.2 0 0 0-3.4.6 4.4 4.4 0 0 0-1.5 3.4l.4 1.2c0 .4-1 .4-1.7.4s-.8-1.3-.2-2.7a20 20 0 0 1 3.3-5.8s.1-.3 1-.2l6.3.3v-2c5.8-.7 11.6-1.1 17.3-1.1v1.6a19 19 0 0 1 7-1.8.8.8 0 0 1 .7.4l2.2 3 1.6 2.5c-.2.6-.4 1.2-.7 1.6Z" fill="#FDC305"/><path d="m48.3 17 .8 1.1 1.6 2.7-.7 1.5c-.4.4-1.2.6-1.3-.5l-.2-1.9s-1.6-3-2.3-3c-.6 0-5 3-6.1 4.4-1 1-1.2 1-1.2 3L39 34c1.6.2 3.8.6 4.5 1.6 0 0-.2-6.2 6.7-3 0 0 .2-8.5 9.8-6.3-3.3-3.9-7.2-7-11.7-9.4Zm-9-2c0-4.8-.4-9.7-1.2-14.4 0 0-.1-1.2-.8-.2-.5 1-.8 2.2-1 3.5-3.6-.3-7.3-.2-11 .2C24.6 1.8 23.4.7 23 1c-.6.3-.7 3-.7 3L22 16.1c5.7-.8 11.5-1.2 17.3-1.2Z" fill="#F06351"/><path d="m38.8 39.2.2-3.5-7 1.9c-2.2.6-4.4 1.1-6.7 1.5l1 4.4v.3c1.4.8 2.7 1.6 4.1 2.2 2.1-1 4-2.2 6-3.6.9-.9 1.7-2 2.4-3.2Z" fill="#E55645"/><path d="m27.4 12.3 1.2.8c.3.2.5.3.5.5 0 .1-.2.3-.5.3l-.9-.2c0-.2.5 0 .8 0h.3a7 7 0 0 1-1.4-1.4Zm6.4.1-1 1.1s-.1.3.2.3c.4 0 .7-.2 1-.3.1 0 .1-.1 0-.1h-1l.7-1s0-.1 0 0ZM31 17.7a2 2 0 0 0 1-.9c.3-.6 0-.8-.3-.9a2 2 0 0 0-1.5.3c-.4.4-.3.7 0 1l.9.5Z" fill="#000"/><path d="m30.8 18.8-.4.5c-.3.2-.5.3-.9.3s-.9 0-1.3-.3l-.4-.4-.3-.3s.6 3.6 2.2 4.2c1.5.6 1.8-.7 1.8-1 .1-1-.1-2-.7-2.8v-.2Z" fill="#F06351"/><path d="M29.3 19.8a3 3 0 0 1-2-1.3.1.1 0 0 1 0-.1.1.1 0 0 1 .2 0 2.8 2.8 0 0 0 1.8 1.1 1.8 1.8 0 0 0 1.4-.9l.1-.1.1.2s.3.6.9.7c.5 0 .9-.4 1.4-1.2h.1v.2c-.5.8-1 1.2-1.6 1.2a1.3 1.3 0 0 1-1-.6 2 2 0 0 1-1.4.8Z" fill="#000"/><path d="M31 31.5c1.8 0 3.2-1.4 3.2-3.2 0-1.9-1.4-3.3-3.2-3.3a3.2 3.2 0 0 0-3.2 3.3c0 1.8 1.4 3.2 3.2 3.2Z" fill="#FDC305"/><path d="m35.3 25.6-2.7 1.1 1-4.9-6.4 8.5 2.6-1.1-1 5 6.5-8.6Zm-6.4 3.3 3.6-4.7-.7 3.5 1.7-.7-3.6 4.7.7-3.5-1.7.7Zm-1.2-1.2c.6 0 1-.5 1-1 0-.6-.4-1-1-1a1 1 0 0 0-1 1c0 .5.5 1 1 1Zm5.6 3.5c.4 0 .7-.3.7-.7 0-.4-.3-.7-.7-.7-.4 0-.7.3-.7.7 0 .4.3.7.7.7Zm.8-1.9c.2 0 .3-.1.3-.3 0-.2-.1-.3-.3-.3-.1 0-.3.1-.3.3 0 .2.2.3.3.3Z" fill="#111"/><path d="M39.2 16.6c-1.5 1.4-3 3-4.3 4.5-1.4 1.6-2.9 3-4.6 4.3-.1-.5-1.4-1.3-1.4-1.3l-4.4-3.4c-1-.8-1.8-1.7-2.7-2.6l-1.7-.1c2.5 3.7 6 6.4 10.3 7.7.7-.1 2.8-1.6 4.3-2.8 1.9-1.6 3.6-3.4 5.2-5.2l1-1.7-1.7.6Zm-17 5.9L17.7 21a3.2 3.2 0 0 0-3.4.6 4.4 4.4 0 0 0-1.5 3.4l.4 1.2c0 .4-1 .4-1.7.4s-.8-1.3-.2-2.7a20 20 0 0 1 1.5-3.3C8.2 23 0 28.7 0 28.7c2.3-.1 4.7 0 7 .2 4.5.5 4.3 4 4.3 4L16 32c1.8-.1 2 1.9 2 1.9l.4 3.3c.7-.7 1.4-1.4 2.3-2 1-.9 2.4-1.3 3.7-1.2l-2.3-11.5Z" fill="#F06351"/></svg>